<svg width="16" height="16" viewBox="0 0 16 16" fill="none" xmlns="http://www.w3.org/2000/svg">
<path d="M0.955292 4.84988C0.955292 4.57299 1.0538 4.3387 1.25082 4.14701C1.44784 3.95532 1.68479 3.85947 1.96168 3.85947C2.51749 3.85947 2.96806 4.31004 2.96806 4.86586V7.34188C2.96806 7.8977 2.51749 8.34827 1.96168 8.34827C1.68479 8.34827 1.44784 8.25242 1.25082 8.06073C1.0538 7.86904 0.955292 7.63475 0.955292 7.35786V4.84988ZM12.1374 0.728492C12.5953 0.291859 13.0106 0.0522432 13.3834 0.00964491C13.7561 -0.0329534 14.0862 0.0655552 14.3738 0.305171C14.6613 0.544787 14.9063 0.896223 15.1086 1.35948C15.3109 1.82274 15.476 2.33924 15.6038 2.90899C15.7316 3.47875 15.8274 4.07512 15.8913 4.69813C15.9552 5.32113 15.9872 5.91484 15.9872 6.47927C15.9872 7.0437 15.9472 7.60812 15.8674 8.17255C15.7875 8.73698 15.6704 9.2668 15.5159 9.762C15.3615 10.2572 15.1805 10.6912 14.9728 11.0639C14.7651 11.4367 14.5335 11.7135 14.2779 11.8946C14.0223 12.0756 13.7481 12.1395 13.4552 12.0863C13.1624 12.033 12.8562 11.8254 12.5367 11.4633C12.2279 11.1012 11.8099 10.8003 11.2827 10.5607C10.7556 10.3211 10.1805 10.1188 9.5575 9.9537C8.93449 9.78863 8.30351 9.65551 7.66453 9.55434C7.02556 9.45317 6.43983 9.36264 5.90735 9.28277C5.37487 9.2029 4.93025 9.12569 4.57349 9.05114C4.13667 8.95987 3.97445 8.5503 3.97445 8.10404V4.42581C3.97445 3.99709 4.07019 3.54553 4.47764 3.41219C4.77051 3.31634 5.14324 3.22582 5.59585 3.14062C6.04846 3.05543 6.55964 2.96224 7.12939 2.86107C7.69914 2.7599 8.27955 2.62146 8.8706 2.44574C9.46165 2.27002 10.0394 2.04638 10.6038 1.77481C11.1682 1.50325 11.6794 1.15448 12.1374 0.728492ZM6.03515 10.393C6.26208 10.4686 6.43645 10.6462 6.54129 10.8612C6.55331 10.8859 6.56564 10.9108 6.57827 10.9361C6.64217 11.0746 6.72737 11.2343 6.83386 11.4154C6.94036 11.5964 7.06816 11.7934 7.21725 12.0064C7.39829 12.262 7.582 12.5309 7.76837 12.8131C7.95473 13.0953 8.09584 13.3509 8.19169 13.5799C8.28753 13.8088 8.31682 13.9979 8.27955 14.147C8.24227 14.2961 8.09052 14.3706 7.82428 14.3706H6.91374C6.70074 14.3706 6.50373 14.3307 6.32268 14.2508C6.14164 14.1709 5.96859 14.0485 5.80352 13.8834C5.63845 13.7183 5.46806 13.508 5.29234 13.2524C5.11662 12.9968 4.92759 12.6933 4.72525 12.3419C4.48031 11.9372 4.30991 11.5831 4.21407 11.2796C4.11822 10.9761 4.05432 10.7231 4.02237 10.5208C4.00305 10.4145 3.99249 10.3148 3.9907 10.2216C3.98729 10.0445 4.15496 9.93104 4.32589 9.97766C4.42173 9.99896 4.53888 10.0256 4.67732 10.0575C4.81577 10.0895 4.97551 10.1214 5.15655 10.1534C5.3376 10.196 5.5 10.2359 5.64377 10.2732C5.78754 10.3105 5.918 10.3504 6.03515 10.393Z" fill="url(#paint0_linear_2403_13767)"/>
<defs>
<linearGradient id="paint0_linear_2403_13767" x1="0.955292" y1="7.18531" x2="15.9872" y2="7.18531" gradientUnits="userSpaceOnUse">
<stop stop-color="#F1FF2F"/>
<stop offset="1" stop-color="#24DD6E"/>
</linearGradient>
</defs>
</svg>
